<?xml version="1.0" encoding="UTF-8" standalone="no"?>
<!DOCTYPE svg PUBLIC "-//W3C//DTD SVG 1.1//EN"
 "http://www.w3.org/Graphics/SVG/1.1/DTD/svg11.dtd">
<!-- Generated by graphviz version 2.40.1 (20161225.0304)
 -->
<!-- Title: books Pages: 1 -->
<svg width="539pt" height="742pt"
 viewBox="0.00 0.00 538.50 742.00" xmlns="http://www.w3.org/2000/svg" xmlns:xlink="http://www.w3.org/1999/xlink">
<g id="graph0" class="graph" transform="scale(1 1) rotate(0) translate(4 738)">
<title>books</title>
<polygon fill="#ffffff" stroke="transparent" points="-4,4 -4,-738 534.5,-738 534.5,4 -4,4"/>
<!-- books -->
<g id="node1" class="node">
<title>books</title>
<polygon fill="#efefef" stroke="transparent" points="282,-652.5 282,-687.5 471,-687.5 471,-652.5 282,-652.5"/>
<polygon fill="none" stroke="#000000" points="282,-652.5 282,-687.5 471,-687.5 471,-652.5 282,-652.5"/>
<text text-anchor="start" x="288.7067" y="-665.3" font-family="Arial Bold" font-size="18.00" fill="#000000">books</text>
<text text-anchor="start" x="336.7253" y="-665.3" font-family="Arial" font-size="14.00" fill="#000000">    </text>
<text text-anchor="start" x="370.9301" y="-665.3" font-family="Arial" font-size="14.00" fill="#666666">[BASE TABLE]</text>
<polygon fill="none" stroke="#000000" points="282,-622.5 282,-652.5 471,-652.5 471,-622.5 282,-622.5"/>
<text text-anchor="start" x="289" y="-633.9" font-family="Arial" font-size="14.00" fill="#000000">id </text>
<text text-anchor="start" x="303.7798" y="-633.9" font-family="Arial" font-size="14.00" fill="#666666">[int]</text>
<polygon fill="none" stroke="#000000" points="282,-592.5 282,-622.5 471,-622.5 471,-592.5 282,-592.5"/>
<text text-anchor="start" x="289" y="-603.9" font-family="Arial" font-size="14.00" fill="#000000">title </text>
<text text-anchor="start" x="314.6676" y="-603.9" font-family="Arial" font-size="14.00" fill="#666666">[varchar(255)]</text>
<polygon fill="none" stroke="#000000" points="282,-562.5 282,-592.5 471,-592.5 471,-562.5 282,-562.5"/>
<text text-anchor="start" x="289" y="-573.9" font-family="Arial" font-size="14.00" fill="#000000">isbn </text>
<text text-anchor="start" x="318.5624" y="-573.9" font-family="Arial" font-size="14.00" fill="#666666">[varchar(20)]</text>
<polygon fill="none" stroke="#000000" points="282,-532.5 282,-562.5 471,-562.5 471,-532.5 282,-532.5"/>
<text text-anchor="start" x="289" y="-543.9" font-family="Arial" font-size="14.00" fill="#000000">price </text>
<text text-anchor="start" x="323.223" y="-543.9" font-family="Arial" font-size="14.00" fill="#666666">[varchar(10)]</text>
<polygon fill="none" stroke="#000000" points="282,-502.5 282,-532.5 471,-532.5 471,-502.5 282,-502.5"/>
<text text-anchor="start" x="289" y="-513.9" font-family="Arial" font-size="14.00" fill="#000000">url </text>
<text text-anchor="start" x="308.4404" y="-513.9" font-family="Arial" font-size="14.00" fill="#666666">[text]</text>
<polygon fill="none" stroke="#000000" points="282,-472.5 282,-502.5 471,-502.5 471,-472.5 282,-472.5"/>
<text text-anchor="start" x="289" y="-483.9" font-family="Arial" font-size="14.00" fill="#000000">publisher_id </text>
<text text-anchor="start" x="368.3492" y="-483.9" font-family="Arial" font-size="14.00" fill="#666666">[int]</text>
<polygon fill="none" stroke="#000000" points="282,-442.5 282,-472.5 471,-472.5 471,-442.5 282,-442.5"/>
<text text-anchor="start" x="289" y="-453.9" font-family="Arial" font-size="14.00" fill="#000000">published_at </text>
<text text-anchor="start" x="372.2552" y="-453.9" font-family="Arial" font-size="14.00" fill="#666666">[timestamp]</text>
<polygon fill="none" stroke="#000000" points="282,-412.5 282,-442.5 471,-442.5 471,-412.5 282,-412.5"/>
<text text-anchor="start" x="289" y="-423.9" font-family="Arial" font-size="14.00" fill="#000000">created_at </text>
<text text-anchor="start" x="359.028" y="-423.9" font-family="Arial" font-size="14.00" fill="#666666">[timestamp]</text>
<polygon fill="none" stroke="#000000" points="282,-382.5 282,-412.5 471,-412.5 471,-382.5 282,-382.5"/>
<text text-anchor="start" x="289" y="-393.9" font-family="Arial" font-size="14.00" fill="#000000">updated_at </text>
<text text-anchor="start" x="362.9326" y="-393.9" font-family="Arial" font-size="14.00" fill="#666666">[timestamp]</text>
<polygon fill="none" stroke="#000000" stroke-width="3" points="280,-381.5 280,-689.5 472,-689.5 472,-381.5 280,-381.5"/>
</g>
<!-- publishers -->
<g id="node2" class="node">
<title>publishers</title>
<polygon fill="#efefef" stroke="transparent" points="265,-222.5 265,-257.5 488,-257.5 488,-222.5 265,-222.5"/>
<polygon fill="none" stroke="#000000" points="265,-222.5 265,-257.5 488,-257.5 488,-222.5 265,-222.5"/>
<text text-anchor="start" x="271.7102" y="-235.3" font-family="Arial Bold" font-size="18.00" fill="#000000">publishers</text>
<text text-anchor="start" x="353.7218" y="-235.3" font-family="Arial" font-size="14.00" fill="#000000">    </text>
<text text-anchor="start" x="387.9266" y="-235.3" font-family="Arial" font-size="14.00" fill="#666666">[BASE TABLE]</text>
<polygon fill="none" stroke="#000000" points="265,-192.5 265,-222.5 488,-222.5 488,-192.5 265,-192.5"/>
<text text-anchor="start" x="272" y="-203.9" font-family="Arial" font-size="14.00" fill="#000000">id    </text>
<text text-anchor="start" x="317.094" y="-203.9" font-family="Arial" font-size="14.00" fill="#666666">[int]</text>
<polygon fill="none" stroke="#000000" points="265,-162.5 265,-192.5 488,-192.5 488,-162.5 265,-162.5"/>
<text text-anchor="start" x="272" y="-173.9" font-family="Arial" font-size="14.00" fill="#000000">name    </text>
<text text-anchor="start" x="341.2132" y="-173.9" font-family="Arial" font-size="14.00" fill="#666666">[text]</text>
<polygon fill="none" stroke="#000000" points="265,-132.5 265,-162.5 488,-162.5 488,-132.5 265,-132.5"/>
<text text-anchor="start" x="272" y="-143.9" font-family="Arial" font-size="14.00" fill="#000000">description    </text>
<text text-anchor="start" x="373.8822" y="-143.9" font-family="Arial" font-size="14.00" fill="#666666">[text]</text>
<polygon fill="none" stroke="#000000" points="265,-102.5 265,-132.5 488,-132.5 488,-102.5 265,-102.5"/>
<text text-anchor="start" x="272" y="-113.9" font-family="Arial" font-size="14.00" fill="#000000">url    </text>
<text text-anchor="start" x="321.7546" y="-113.9" font-family="Arial" font-size="14.00" fill="#666666">[text]</text>
<polygon fill="none" stroke="#000000" points="265,-72.5 265,-102.5 488,-102.5 488,-72.5 265,-72.5"/>
<text text-anchor="start" x="272" y="-83.9" font-family="Arial" font-size="14.00" fill="#000000">created_at    </text>
<text text-anchor="start" x="372.3422" y="-83.9" font-family="Arial" font-size="14.00" fill="#666666">[timestamp]</text>
<polygon fill="none" stroke="#000000" points="265,-42.5 265,-72.5 488,-72.5 488,-42.5 265,-42.5"/>
<text text-anchor="start" x="272" y="-53.9" font-family="Arial" font-size="14.00" fill="#000000">updated_at    </text>
<text text-anchor="start" x="376.2468" y="-53.9" font-family="Arial" font-size="14.00" fill="#666666">[timestamp]</text>
</g>
<!-- books&#45;&gt;publishers -->
<g id="edge1" class="edge">
<title>books:publisher_id&#45;&gt;publishers:id</title>
<path fill="none" stroke="#000000" d="M272.1852,-485.0794C218.0411,-457.7124 206.0722,-207.5 265,-207.5"/>
<polygon fill="#000000" stroke="#000000" points="272.2909,-485.1054 280.9224,-491.8691 277.1455,-486.3027 282,-487.5 282,-487.5 282,-487.5 277.1455,-486.3027 283.0776,-483.1309 272.2909,-485.1054 272.2909,-485.1054"/>
<text text-anchor="start" x="6.83" y="-497.5" font-family="Arial" font-size="10.00" fill="#000000">FOREIGN KEY (publisher_id) REFERENCES publishers (id)</text>
</g>
</g>
</svg>
