<?xml version="1.0" encoding="UTF-8" standalone="no"?>
<!DOCTYPE svg PUBLIC "-//W3C//DTD SVG 1.1//EN"
 "http://www.w3.org/Graphics/SVG/1.1/DTD/svg11.dtd">
<!-- Generated by graphviz version 2.40.1 (20161225.0304)
 -->
<!-- Title: publishers Pages: 1 -->
<svg width="547pt" height="742pt"
 viewBox="0.00 0.00 546.50 742.00" xmlns="http://www.w3.org/2000/svg" xmlns:xlink="http://www.w3.org/1999/xlink">
<g id="graph0" class="graph" transform="scale(1 1) rotate(0) translate(4 738)">
<title>publishers</title>
<polygon fill="#ffffff" stroke="transparent" points="-4,4 -4,-738 542.5,-738 542.5,4 -4,4"/>
<!-- publishers -->
<g id="node1" class="node">
<title>publishers</title>
<polygon fill="#efefef" stroke="transparent" points="270,-225.5 270,-260.5 493,-260.5 493,-225.5 270,-225.5"/>
<polygon fill="none" stroke="#000000" points="270,-225.5 270,-260.5 493,-260.5 493,-225.5 270,-225.5"/>
<text text-anchor="start" x="276.7102" y="-238.3" font-family="Arial Bold" font-size="18.00" fill="#000000">publishers</text>
<text text-anchor="start" x="358.7218" y="-238.3" font-family="Arial" font-size="14.00" fill="#000000">    </text>
<text text-anchor="start" x="392.9266" y="-238.3" font-family="Arial" font-size="14.00" fill="#666666">[BASE TABLE]</text>
<polygon fill="none" stroke="#000000" points="270,-195.5 270,-225.5 493,-225.5 493,-195.5 270,-195.5"/>
<text text-anchor="start" x="277" y="-206.9" font-family="Arial" font-size="14.00" fill="#000000">id </text>
<text text-anchor="start" x="291.7798" y="-206.9" font-family="Arial" font-size="14.00" fill="#666666">[int]</text>
<polygon fill="none" stroke="#000000" points="270,-165.5 270,-195.5 493,-195.5 493,-165.5 270,-165.5"/>
<text text-anchor="start" x="277" y="-176.9" font-family="Arial" font-size="14.00" fill="#000000">name </text>
<text text-anchor="start" x="315.899" y="-176.9" font-family="Arial" font-size="14.00" fill="#666666">[text]</text>
<polygon fill="none" stroke="#000000" points="270,-135.5 270,-165.5 493,-165.5 493,-135.5 270,-135.5"/>
<text text-anchor="start" x="277" y="-146.9" font-family="Arial" font-size="14.00" fill="#000000">description </text>
<text text-anchor="start" x="348.568" y="-146.9" font-family="Arial" font-size="14.00" fill="#666666">[text]</text>
<polygon fill="none" stroke="#000000" points="270,-105.5 270,-135.5 493,-135.5 493,-105.5 270,-105.5"/>
<text text-anchor="start" x="277" y="-116.9" font-family="Arial" font-size="14.00" fill="#000000">url </text>
<text text-anchor="start" x="296.4404" y="-116.9" font-family="Arial" font-size="14.00" fill="#666666">[text]</text>
<polygon fill="none" stroke="#000000" points="270,-75.5 270,-105.5 493,-105.5 493,-75.5 270,-75.5"/>
<text text-anchor="start" x="277" y="-86.9" font-family="Arial" font-size="14.00" fill="#000000">created_at </text>
<text text-anchor="start" x="347.028" y="-86.9" font-family="Arial" font-size="14.00" fill="#666666">[timestamp]</text>
<polygon fill="none" stroke="#000000" points="270,-45.5 270,-75.5 493,-75.5 493,-45.5 270,-45.5"/>
<text text-anchor="start" x="277" y="-56.9" font-family="Arial" font-size="14.00" fill="#000000">updated_at </text>
<text text-anchor="start" x="350.9326" y="-56.9" font-family="Arial" font-size="14.00" fill="#666666">[timestamp]</text>
<polygon fill="none" stroke="#000000" stroke-width="3" points="268,-44.5 268,-262.5 494,-262.5 494,-44.5 268,-44.5"/>
</g>
<!-- books -->
<g id="node2" class="node">
<title>books</title>
<polygon fill="#efefef" stroke="transparent" points="282,-655.5 282,-690.5 481,-690.5 481,-655.5 282,-655.5"/>
<polygon fill="none" stroke="#000000" points="282,-655.5 282,-690.5 481,-690.5 481,-655.5 282,-655.5"/>
<text text-anchor="start" x="293.7067" y="-668.3" font-family="Arial Bold" font-size="18.00" fill="#000000">books</text>
<text text-anchor="start" x="341.7253" y="-668.3" font-family="Arial" font-size="14.00" fill="#000000">    </text>
<text text-anchor="start" x="375.9301" y="-668.3" font-family="Arial" font-size="14.00" fill="#666666">[BASE TABLE]</text>
<polygon fill="none" stroke="#000000" points="282,-625.5 282,-655.5 481,-655.5 481,-625.5 282,-625.5"/>
<text text-anchor="start" x="289" y="-636.9" font-family="Arial" font-size="14.00" fill="#000000">id    </text>
<text text-anchor="start" x="334.094" y="-636.9" font-family="Arial" font-size="14.00" fill="#666666">[int]</text>
<polygon fill="none" stroke="#000000" points="282,-595.5 282,-625.5 481,-625.5 481,-595.5 282,-595.5"/>
<text text-anchor="start" x="289" y="-606.9" font-family="Arial" font-size="14.00" fill="#000000">title    </text>
<text text-anchor="start" x="344.9818" y="-606.9" font-family="Arial" font-size="14.00" fill="#666666">[varchar(255)]</text>
<polygon fill="none" stroke="#000000" points="282,-565.5 282,-595.5 481,-595.5 481,-565.5 282,-565.5"/>
<text text-anchor="start" x="289" y="-576.9" font-family="Arial" font-size="14.00" fill="#000000">isbn    </text>
<text text-anchor="start" x="348.8766" y="-576.9" font-family="Arial" font-size="14.00" fill="#666666">[varchar(20)]</text>
<polygon fill="none" stroke="#000000" points="282,-535.5 282,-565.5 481,-565.5 481,-535.5 282,-535.5"/>
<text text-anchor="start" x="289" y="-546.9" font-family="Arial" font-size="14.00" fill="#000000">price    </text>
<text text-anchor="start" x="353.5372" y="-546.9" font-family="Arial" font-size="14.00" fill="#666666">[varchar(10)]</text>
<polygon fill="none" stroke="#000000" points="282,-505.5 282,-535.5 481,-535.5 481,-505.5 282,-505.5"/>
<text text-anchor="start" x="289" y="-516.9" font-family="Arial" font-size="14.00" fill="#000000">url    </text>
<text text-anchor="start" x="338.7546" y="-516.9" font-family="Arial" font-size="14.00" fill="#666666">[text]</text>
<polygon fill="none" stroke="#000000" points="282,-475.5 282,-505.5 481,-505.5 481,-475.5 282,-475.5"/>
<text text-anchor="start" x="289" y="-486.9" font-family="Arial" font-size="14.00" fill="#000000">publisher_id    </text>
<text text-anchor="start" x="398.6634" y="-486.9" font-family="Arial" font-size="14.00" fill="#666666">[int]</text>
<polygon fill="none" stroke="#000000" points="282,-445.5 282,-475.5 481,-475.5 481,-445.5 282,-445.5"/>
<text text-anchor="start" x="288.5463" y="-456.9" font-family="Arial" font-size="14.00" fill="#000000">published_at    </text>
<text text-anchor="start" x="402.1157" y="-456.9" font-family="Arial" font-size="14.00" fill="#666666">[timestamp]</text>
<polygon fill="none" stroke="#000000" points="282,-415.5 282,-445.5 481,-445.5 481,-415.5 282,-415.5"/>
<text text-anchor="start" x="289" y="-426.9" font-family="Arial" font-size="14.00" fill="#000000">created_at    </text>
<text text-anchor="start" x="389.3422" y="-426.9" font-family="Arial" font-size="14.00" fill="#666666">[timestamp]</text>
<polygon fill="none" stroke="#000000" points="282,-385.5 282,-415.5 481,-415.5 481,-385.5 282,-385.5"/>
<text text-anchor="start" x="289" y="-396.9" font-family="Arial" font-size="14.00" fill="#000000">updated_at    </text>
<text text-anchor="start" x="393.2468" y="-396.9" font-family="Arial" font-size="14.00" fill="#666666">[timestamp]</text>
</g>
<!-- books&#45;&gt;publishers -->
<g id="edge1" class="edge">
<title>books:publisher_id&#45;&gt;publishers:id</title>
<path fill="none" stroke="#000000" d="M272.2373,-488.0794C218.6303,-460.7124 211.1266,-210.5 270,-210.5"/>
<polygon fill="#000000" stroke="#000000" points="272.2939,-488.0933 280.917,-494.8677 277.1469,-489.2967 282,-490.5 282,-490.5 282,-490.5 277.1469,-489.2967 283.083,-486.1323 272.2939,-488.0933 272.2939,-488.0933"/>
<text text-anchor="start" x="6.83" y="-500.5" font-family="Arial" font-size="10.00" fill="#000000">FOREIGN KEY (publisher_id) REFERENCES publishers (id)</text>
</g>
</g>
</svg>
