<?xml version="1.0" encoding="UTF-8" standalone="no"?>
<!DOCTYPE svg PUBLIC "-//W3C//DTD SVG 1.1//EN"
 "http://www.w3.org/Graphics/SVG/1.1/DTD/svg11.dtd">
<!-- Generated by graphviz version 2.40.1 (20161225.0304)
 -->
<!-- Title: tech_books_explorer Pages: 1 -->
<svg width="963pt" height="766pt"
 viewBox="0.00 0.00 962.50 766.00" xmlns="http://www.w3.org/2000/svg" xmlns:xlink="http://www.w3.org/1999/xlink">
<g id="graph0" class="graph" transform="scale(1 1) rotate(0) translate(4 762)">
<title>tech_books_explorer</title>
<polygon fill="#ffffff" stroke="transparent" points="-4,4 -4,-762 958.5,-762 958.5,4 -4,4"/>
<!-- books -->
<g id="node1" class="node">
<title>books</title>
<polygon fill="#efefef" stroke="transparent" points="282,-664.5 282,-699.5 481,-699.5 481,-664.5 282,-664.5"/>
<polygon fill="none" stroke="#000000" points="282,-664.5 282,-699.5 481,-699.5 481,-664.5 282,-664.5"/>
<text text-anchor="start" x="293.7067" y="-677.3" font-family="Arial Bold" font-size="18.00" fill="#000000">books</text>
<text text-anchor="start" x="341.7253" y="-677.3" font-family="Arial" font-size="14.00" fill="#000000">    </text>
<text text-anchor="start" x="375.9301" y="-677.3" font-family="Arial" font-size="14.00" fill="#666666">[BASE TABLE]</text>
<polygon fill="none" stroke="#000000" points="282,-634.5 282,-664.5 481,-664.5 481,-634.5 282,-634.5"/>
<text text-anchor="start" x="289" y="-645.9" font-family="Arial" font-size="14.00" fill="#000000">id    </text>
<text text-anchor="start" x="334.094" y="-645.9" font-family="Arial" font-size="14.00" fill="#666666">[int]</text>
<polygon fill="none" stroke="#000000" points="282,-604.5 282,-634.5 481,-634.5 481,-604.5 282,-604.5"/>
<text text-anchor="start" x="289" y="-615.9" font-family="Arial" font-size="14.00" fill="#000000">title    </text>
<text text-anchor="start" x="344.9818" y="-615.9" font-family="Arial" font-size="14.00" fill="#666666">[varchar(255)]</text>
<polygon fill="none" stroke="#000000" points="282,-574.5 282,-604.5 481,-604.5 481,-574.5 282,-574.5"/>
<text text-anchor="start" x="289" y="-585.9" font-family="Arial" font-size="14.00" fill="#000000">isbn    </text>
<text text-anchor="start" x="348.8766" y="-585.9" font-family="Arial" font-size="14.00" fill="#666666">[varchar(20)]</text>
<polygon fill="none" stroke="#000000" points="282,-544.5 282,-574.5 481,-574.5 481,-544.5 282,-544.5"/>
<text text-anchor="start" x="289" y="-555.9" font-family="Arial" font-size="14.00" fill="#000000">price    </text>
<text text-anchor="start" x="353.5372" y="-555.9" font-family="Arial" font-size="14.00" fill="#666666">[varchar(10)]</text>
<polygon fill="none" stroke="#000000" points="282,-514.5 282,-544.5 481,-544.5 481,-514.5 282,-514.5"/>
<text text-anchor="start" x="289" y="-525.9" font-family="Arial" font-size="14.00" fill="#000000">url    </text>
<text text-anchor="start" x="338.7546" y="-525.9" font-family="Arial" font-size="14.00" fill="#666666">[text]</text>
<polygon fill="none" stroke="#000000" points="282,-484.5 282,-514.5 481,-514.5 481,-484.5 282,-484.5"/>
<text text-anchor="start" x="289" y="-495.9" font-family="Arial" font-size="14.00" fill="#000000">publisher_id    </text>
<text text-anchor="start" x="398.6634" y="-495.9" font-family="Arial" font-size="14.00" fill="#666666">[int]</text>
<polygon fill="none" stroke="#000000" points="282,-454.5 282,-484.5 481,-484.5 481,-454.5 282,-454.5"/>
<text text-anchor="start" x="288.5463" y="-465.9" font-family="Arial" font-size="14.00" fill="#000000">published_at    </text>
<text text-anchor="start" x="402.1157" y="-465.9" font-family="Arial" font-size="14.00" fill="#666666">[timestamp]</text>
<polygon fill="none" stroke="#000000" points="282,-424.5 282,-454.5 481,-454.5 481,-424.5 282,-424.5"/>
<text text-anchor="start" x="289" y="-435.9" font-family="Arial" font-size="14.00" fill="#000000">created_at    </text>
<text text-anchor="start" x="389.3422" y="-435.9" font-family="Arial" font-size="14.00" fill="#666666">[timestamp]</text>
<polygon fill="none" stroke="#000000" points="282,-394.5 282,-424.5 481,-424.5 481,-394.5 282,-394.5"/>
<text text-anchor="start" x="289" y="-405.9" font-family="Arial" font-size="14.00" fill="#000000">updated_at    </text>
<text text-anchor="start" x="393.2468" y="-405.9" font-family="Arial" font-size="14.00" fill="#666666">[timestamp]</text>
</g>
<!-- publishers -->
<g id="node3" class="node">
<title>publishers</title>
<polygon fill="#efefef" stroke="transparent" points="270,-222.5 270,-257.5 493,-257.5 493,-222.5 270,-222.5"/>
<polygon fill="none" stroke="#000000" points="270,-222.5 270,-257.5 493,-257.5 493,-222.5 270,-222.5"/>
<text text-anchor="start" x="276.7102" y="-235.3" font-family="Arial Bold" font-size="18.00" fill="#000000">publishers</text>
<text text-anchor="start" x="358.7218" y="-235.3" font-family="Arial" font-size="14.00" fill="#000000">    </text>
<text text-anchor="start" x="392.9266" y="-235.3" font-family="Arial" font-size="14.00" fill="#666666">[BASE TABLE]</text>
<polygon fill="none" stroke="#000000" points="270,-192.5 270,-222.5 493,-222.5 493,-192.5 270,-192.5"/>
<text text-anchor="start" x="277" y="-203.9" font-family="Arial" font-size="14.00" fill="#000000">id    </text>
<text text-anchor="start" x="322.094" y="-203.9" font-family="Arial" font-size="14.00" fill="#666666">[int]</text>
<polygon fill="none" stroke="#000000" points="270,-162.5 270,-192.5 493,-192.5 493,-162.5 270,-162.5"/>
<text text-anchor="start" x="277" y="-173.9" font-family="Arial" font-size="14.00" fill="#000000">name    </text>
<text text-anchor="start" x="346.2132" y="-173.9" font-family="Arial" font-size="14.00" fill="#666666">[text]</text>
<polygon fill="none" stroke="#000000" points="270,-132.5 270,-162.5 493,-162.5 493,-132.5 270,-132.5"/>
<text text-anchor="start" x="277" y="-143.9" font-family="Arial" font-size="14.00" fill="#000000">description    </text>
<text text-anchor="start" x="378.8822" y="-143.9" font-family="Arial" font-size="14.00" fill="#666666">[text]</text>
<polygon fill="none" stroke="#000000" points="270,-102.5 270,-132.5 493,-132.5 493,-102.5 270,-102.5"/>
<text text-anchor="start" x="277" y="-113.9" font-family="Arial" font-size="14.00" fill="#000000">url    </text>
<text text-anchor="start" x="326.7546" y="-113.9" font-family="Arial" font-size="14.00" fill="#666666">[text]</text>
<polygon fill="none" stroke="#000000" points="270,-72.5 270,-102.5 493,-102.5 493,-72.5 270,-72.5"/>
<text text-anchor="start" x="277" y="-83.9" font-family="Arial" font-size="14.00" fill="#000000">created_at    </text>
<text text-anchor="start" x="377.3422" y="-83.9" font-family="Arial" font-size="14.00" fill="#666666">[timestamp]</text>
<polygon fill="none" stroke="#000000" points="270,-42.5 270,-72.5 493,-72.5 493,-42.5 270,-42.5"/>
<text text-anchor="start" x="277" y="-53.9" font-family="Arial" font-size="14.00" fill="#000000">updated_at    </text>
<text text-anchor="start" x="381.2468" y="-53.9" font-family="Arial" font-size="14.00" fill="#666666">[timestamp]</text>
</g>
<!-- books&#45;&gt;publishers -->
<g id="edge1" class="edge">
<title>books:publisher_id&#45;&gt;publishers:id</title>
<path fill="none" stroke="#000000" d="M272.1709,-497.1496C216.0047,-469.5152 208.4811,-207.5 270,-207.5"/>
<polygon fill="#000000" stroke="#000000" points="272.2742,-497.1742 280.9534,-503.8766 277.1371,-498.3371 282,-499.5 282,-499.5 282,-499.5 277.1371,-498.3371 283.0466,-495.1234 272.2742,-497.1742 272.2742,-497.1742"/>
<text text-anchor="start" x="6.83" y="-509.5" font-family="Arial" font-size="10.00" fill="#000000">FOREIGN KEY (publisher_id) REFERENCES publishers (id)</text>
</g>
<!-- flyway_schema_history -->
<g id="node2" class="node">
<title>flyway_schema_history</title>
<polygon fill="#efefef" stroke="transparent" points="585,-679.5 585,-714.5 912,-714.5 912,-679.5 585,-679.5"/>
<polygon fill="none" stroke="#000000" points="585,-679.5 585,-714.5 912,-714.5 912,-679.5 585,-679.5"/>
<text text-anchor="start" x="591.7055" y="-692.3" font-family="Arial Bold" font-size="18.00" fill="#000000">flyway_schema_history</text>
<text text-anchor="start" x="777.7265" y="-692.3" font-family="Arial" font-size="14.00" fill="#000000">    </text>
<text text-anchor="start" x="811.9313" y="-692.3" font-family="Arial" font-size="14.00" fill="#666666">[BASE TABLE]</text>
<polygon fill="none" stroke="#000000" points="585,-649.5 585,-679.5 912,-679.5 912,-649.5 585,-649.5"/>
<text text-anchor="start" x="592" y="-660.9" font-family="Arial" font-size="14.00" fill="#000000">installed_rank    </text>
<text text-anchor="start" x="712.554" y="-660.9" font-family="Arial" font-size="14.00" fill="#666666">[int]</text>
<polygon fill="none" stroke="#000000" points="585,-619.5 585,-649.5 912,-649.5 912,-619.5 585,-619.5"/>
<text text-anchor="start" x="592" y="-630.9" font-family="Arial" font-size="14.00" fill="#000000">version    </text>
<text text-anchor="start" x="671.3198" y="-630.9" font-family="Arial" font-size="14.00" fill="#666666">[varchar(50)]</text>
<polygon fill="none" stroke="#000000" points="585,-589.5 585,-619.5 912,-619.5 912,-589.5 585,-589.5"/>
<text text-anchor="start" x="592" y="-600.9" font-family="Arial" font-size="14.00" fill="#000000">description    </text>
<text text-anchor="start" x="693.8822" y="-600.9" font-family="Arial" font-size="14.00" fill="#666666">[varchar(200)]</text>
<polygon fill="none" stroke="#000000" points="585,-559.5 585,-589.5 912,-589.5 912,-559.5 585,-559.5"/>
<text text-anchor="start" x="592" y="-570.9" font-family="Arial" font-size="14.00" fill="#000000">type    </text>
<text text-anchor="start" x="652.6606" y="-570.9" font-family="Arial" font-size="14.00" fill="#666666">[varchar(20)]</text>
<polygon fill="none" stroke="#000000" points="585,-529.5 585,-559.5 912,-559.5 912,-529.5 585,-529.5"/>
<text text-anchor="start" x="592" y="-540.9" font-family="Arial" font-size="14.00" fill="#000000">script    </text>
<text text-anchor="start" x="659.6452" y="-540.9" font-family="Arial" font-size="14.00" fill="#666666">[varchar(1000)]</text>
<polygon fill="none" stroke="#000000" points="585,-499.5 585,-529.5 912,-529.5 912,-499.5 585,-499.5"/>
<text text-anchor="start" x="592" y="-510.9" font-family="Arial" font-size="14.00" fill="#000000">checksum    </text>
<text text-anchor="start" x="689.2132" y="-510.9" font-family="Arial" font-size="14.00" fill="#666666">[int]</text>
<polygon fill="none" stroke="#000000" points="585,-469.5 585,-499.5 912,-499.5 912,-469.5 585,-469.5"/>
<text text-anchor="start" x="592" y="-480.9" font-family="Arial" font-size="14.00" fill="#000000">installed_by    </text>
<text text-anchor="start" x="700.1108" y="-480.9" font-family="Arial" font-size="14.00" fill="#666666">[varchar(100)]</text>
<polygon fill="none" stroke="#000000" points="585,-439.5 585,-469.5 912,-469.5 912,-439.5 585,-439.5"/>
<text text-anchor="start" x="592" y="-450.9" font-family="Arial" font-size="14.00" fill="#000000">installed_on    </text>
<text text-anchor="start" x="700.8934" y="-450.9" font-family="Arial" font-size="14.00" fill="#666666">[timestamp]</text>
<polygon fill="none" stroke="#000000" points="585,-409.5 585,-439.5 912,-439.5 912,-409.5 585,-409.5"/>
<text text-anchor="start" x="592" y="-420.9" font-family="Arial" font-size="14.00" fill="#000000">execution_time    </text>
<text text-anchor="start" x="720.338" y="-420.9" font-family="Arial" font-size="14.00" fill="#666666">[int]</text>
<polygon fill="none" stroke="#000000" points="585,-379.5 585,-409.5 912,-409.5 912,-379.5 585,-379.5"/>
<text text-anchor="start" x="592" y="-390.9" font-family="Arial" font-size="14.00" fill="#000000">success    </text>
<text text-anchor="start" x="676.77" y="-390.9" font-family="Arial" font-size="14.00" fill="#666666">[tinyint(1)]</text>
</g>
</g>
</svg>
